<svg width="20" height="19" viewBox="0 0 20 19" fill="none" xmlns="http://www.w3.org/2000/svg">
<path d="M6.80775 19C6.30258 19 5.875 18.825 5.525 18.475C5.175 18.125 5 17.6974 5 17.1923V1.80775C5 1.30258 5.175 0.875 5.525 0.525C5.875 0.175 6.30258 0 6.80775 0H14.75L20 5.25V17.1923C20 17.6974 19.825 18.125 19.475 18.475C19.125 18.825 18.6974 19 18.1923 19H6.80775ZM14 6H18.5L14 1.5V6Z" fill="#F94747"/>
<rect x="0.194444" y="8.10362" width="13.6111" height="5.97475" rx="0.618687" fill="white"/>
<rect x="0.194444" y="8.10362" width="13.6111" height="5.97475" rx="0.618687" stroke="#F94747" stroke-width="0.388889"/>
<path d="M1.55566 12.0511H2.19061V12.5794H1.55566V12.0511Z" fill="#F94747"/>
<path d="M2.82444 9.60249H4.11875C4.37924 9.60249 4.60391 9.64022 4.79277 9.71569C4.98162 9.78837 5.12652 9.89459 5.22746 10.0344C5.3284 10.1713 5.37887 10.3362 5.37887 10.5291C5.37887 10.722 5.3284 10.8897 5.22746 11.0323C5.12652 11.172 4.98162 11.2796 4.79277 11.3551C4.60391 11.4278 4.37924 11.4641 4.11875 11.4641H3.35193V12.5794H2.82444V9.60249ZM4.1041 11.0532C4.34179 11.0532 4.52251 11.0085 4.64624 10.919C4.76997 10.8296 4.83184 10.6996 4.83184 10.5291C4.83184 10.3586 4.76997 10.2314 4.64624 10.1476C4.52251 10.0609 4.34179 10.0176 4.1041 10.0176H3.35193V11.0532H4.1041Z" fill="#F94747"/>
<path d="M6.03445 9.60249H6.70359L8.3056 12.0302V9.60249H8.83309V12.5794H8.13953L6.56194 10.2063V12.5794H6.03445V9.60249Z" fill="#F94747"/>
<path d="M10.9842 12.6465C10.6618 12.6465 10.3818 12.5808 10.1441 12.4494C9.90967 12.3181 9.72895 12.135 9.60196 11.9002C9.47823 11.6654 9.41636 11.397 9.41636 11.0951C9.41636 10.7961 9.47986 10.5291 9.60685 10.2943C9.73709 10.0567 9.92106 9.87083 10.1588 9.73666C10.3965 9.60249 10.6781 9.5354 11.0037 9.5354C11.4107 9.5354 11.7331 9.62625 11.9708 9.80794C12.2085 9.98683 12.3632 10.23 12.4348 10.5375L11.8829 10.5627C11.8405 10.367 11.7477 10.216 11.6045 10.1098C11.4645 10.0036 11.2658 9.95049 11.0086 9.95049C10.6602 9.95049 10.3981 10.0581 10.2223 10.2733C10.0497 10.4858 9.96339 10.7597 9.96339 11.0951C9.96339 11.3188 10.0008 11.5158 10.0757 11.6863C10.1506 11.8569 10.2662 11.991 10.4225 12.0889C10.5788 12.1839 10.7742 12.2314 11.0086 12.2314C11.1909 12.2314 11.3521 12.1979 11.4921 12.1308C11.6322 12.0609 11.7396 11.9659 11.8145 11.8457C11.8926 11.7227 11.935 11.5885 11.9415 11.4432H11.0135V11.0616H12.4446V12.5794H12.0831L12.0489 11.9086L12.1173 11.9589C12.0815 12.0931 12.0082 12.2119 11.8975 12.3153C11.7901 12.4187 11.6549 12.4998 11.4921 12.5585C11.3326 12.6172 11.1633 12.6465 10.9842 12.6465Z" fill="#F94747"/>
</svg>
