<svg width="232" height="177" viewBox="0 0 232 177" fill="none" xmlns="http://www.w3.org/2000/svg">
<g clip-path="url(#clip0_651_264)">
<rect width="114.544" height="33.0699" fill="white"/>
<path d="M12.8963 21.7395C12.5379 21.7395 12.1835 21.6608 11.8331 21.5033C11.4826 21.3459 11.1905 21.1354 10.9568 20.872C11.1961 20.8037 11.4226 20.6585 11.6362 20.4364C11.8498 20.2145 11.9566 19.9179 11.9566 19.5469C11.9566 19.1091 12.1082 18.7386 12.4114 18.4355C12.7147 18.1323 13.0851 17.9807 13.5228 17.9807C13.9606 17.9807 14.331 18.1323 14.6342 18.4355C14.9374 18.7386 15.089 19.1091 15.089 19.5469C15.089 20.1498 14.8743 20.666 14.445 21.0953C14.0155 21.5248 13.4993 21.7395 12.8963 21.7395ZM12.8963 20.7998C13.2409 20.7998 13.5359 20.6771 13.7812 20.4317C14.0266 20.1864 14.1493 19.8914 14.1493 19.5469C14.1493 19.3694 14.0892 19.2206 13.9692 19.1005C13.8491 18.9804 13.7003 18.9204 13.5228 18.9204C13.3453 18.9204 13.1965 18.9804 13.0764 19.1005C12.9564 19.2206 12.8963 19.3694 12.8963 19.5469C12.8963 19.787 12.8676 20.0063 12.8102 20.2046C12.7528 20.403 12.6771 20.591 12.5831 20.7685C12.6353 20.7893 12.6875 20.7998 12.7397 20.7998H12.8963ZM16.2215 18.2577L14.824 16.8602L20.1898 11.4944C20.3047 11.3795 20.4482 11.3195 20.6205 11.3143C20.7928 11.3091 20.9416 11.3691 21.0669 11.4944L21.5873 12.0148C21.7126 12.1401 21.7753 12.2863 21.7753 12.4534C21.7753 12.6204 21.7126 12.7666 21.5873 12.8919L16.2215 18.2577Z" fill="#5F6368"/>
<path d="M30.646 19.6648C30.132 19.6648 29.6802 19.5457 29.2907 19.3077C28.9011 19.0642 28.5981 18.7152 28.3817 18.2608C28.1653 17.8063 28.0571 17.2734 28.0571 16.662C28.0571 16.0506 28.1653 15.5177 28.3817 15.0632C28.5981 14.6033 28.9011 14.2517 29.2907 14.0082C29.6802 13.7647 30.132 13.643 30.646 13.643C31.3223 13.643 31.8552 13.8134 32.2447 14.1543C32.6397 14.4951 32.8994 14.9794 33.0238 15.607L32.2853 15.6557C32.2042 15.2336 32.0256 14.9063 31.7497 14.6737C31.4792 14.441 31.1113 14.3247 30.646 14.3247C30.2781 14.3247 29.9534 14.4194 29.6721 14.6087C29.3908 14.7927 29.1716 15.0605 29.0147 15.4122C28.8632 15.7639 28.7875 16.1805 28.7875 16.662C28.7875 17.1435 28.8632 17.5601 29.0147 17.9118C29.1716 18.2581 29.3908 18.5232 29.6721 18.7071C29.9534 18.8911 30.2781 18.9831 30.646 18.9831C31.1383 18.9831 31.5225 18.8559 31.7984 18.6016C32.0797 18.3473 32.2583 17.9875 32.334 17.5222L33.0725 17.5709C32.9643 18.2148 32.6992 18.7261 32.2772 19.1048C31.8606 19.4781 31.3169 19.6648 30.646 19.6648ZM35.7826 19.6323C35.3877 19.6323 35.0414 19.5403 34.7438 19.3564C34.4463 19.1724 34.2163 18.9127 34.054 18.5773C33.8917 18.2364 33.8105 17.8388 33.8105 17.3843C33.8105 16.9298 33.8917 16.5348 34.054 16.1994C34.2163 15.8585 34.4463 15.5961 34.7438 15.4122C35.0414 15.2282 35.3877 15.1363 35.7826 15.1363C36.1722 15.1363 36.5157 15.2282 36.8133 15.4122C37.1109 15.5961 37.3408 15.8585 37.5031 16.1994C37.6655 16.5348 37.7466 16.9298 37.7466 17.3843C37.7466 17.8388 37.6655 18.2364 37.5031 18.5773C37.3408 18.9127 37.1109 19.1724 36.8133 19.3564C36.5157 19.5403 36.1722 19.6323 35.7826 19.6323ZM35.7826 18.9831C36.1776 18.9831 36.4833 18.8424 36.6997 18.561C36.9215 18.2743 37.0324 17.882 37.0324 17.3843C37.0324 16.8865 36.9215 16.497 36.6997 16.2156C36.4833 15.9289 36.1776 15.7855 35.7826 15.7855C35.3877 15.7855 35.0793 15.9262 34.8575 16.2075C34.6356 16.4889 34.5247 16.8811 34.5247 17.3843C34.5247 17.8874 34.6356 18.2797 34.8575 18.561C35.0793 18.8424 35.3877 18.9831 35.7826 18.9831ZM39.5906 19.5349C39.3255 19.5349 39.1172 19.47 38.9657 19.3401C38.8142 19.2049 38.7385 18.9993 38.7385 18.7234L38.7466 13.7728H39.4283V18.6665C39.4283 18.7531 39.45 18.8207 39.4932 18.8694C39.5419 18.9127 39.6096 18.9344 39.6961 18.9344H40.0695V19.5349H39.5906ZM42.6698 19.6323C42.2749 19.6323 41.9286 19.5403 41.631 19.3564C41.3334 19.1724 41.1035 18.9127 40.9412 18.5773C40.7789 18.2364 40.6977 17.8388 40.6977 17.3843C40.6977 16.9298 40.7789 16.5348 40.9412 16.1994C41.1035 15.8585 41.3334 15.5961 41.631 15.4122C41.9286 15.2282 42.2749 15.1363 42.6698 15.1363C43.0594 15.1363 43.4029 15.2282 43.7005 15.4122C43.9981 15.5961 44.228 15.8585 44.3903 16.1994C44.5526 16.5348 44.6338 16.9298 44.6338 17.3843C44.6338 17.8388 44.5526 18.2364 44.3903 18.5773C44.228 18.9127 43.9981 19.1724 43.7005 19.3564C43.4029 19.5403 43.0594 19.6323 42.6698 19.6323ZM42.6698 18.9831C43.0648 18.9831 43.3705 18.8424 43.5869 18.561C43.8087 18.2743 43.9196 17.882 43.9196 17.3843C43.9196 16.8865 43.8087 16.497 43.5869 16.2156C43.3705 15.9289 43.0648 15.7855 42.6698 15.7855C42.2749 15.7855 41.9665 15.9262 41.7446 16.2075C41.5228 16.4889 41.4119 16.8811 41.4119 17.3843C41.4119 17.8874 41.5228 18.2797 41.7446 18.561C41.9665 18.8424 42.2749 18.9831 42.6698 18.9831ZM45.6257 15.2336H46.2262L46.2587 16.3211L46.1938 16.2968C46.2479 15.9343 46.3642 15.6665 46.5427 15.4933C46.7213 15.3202 46.9647 15.2336 47.2731 15.2336H47.6951V15.8829H47.2813C47.0648 15.8829 46.8836 15.9235 46.7375 16.0046C46.5968 16.0804 46.4886 16.1967 46.4129 16.3536C46.3425 16.5105 46.3074 16.7053 46.3074 16.9379V19.5349H45.6257V15.2336ZM52.8635 19.6648C52.4252 19.6648 52.0411 19.5836 51.711 19.4213C51.381 19.2536 51.1186 19.0209 50.9238 18.7234C50.7291 18.4258 50.6154 18.0822 50.583 17.6927L51.3134 17.644C51.3512 17.9307 51.4351 18.1742 51.565 18.3744C51.6948 18.5746 51.8679 18.7261 52.0844 18.8289C52.3062 18.9317 52.5713 18.9831 52.8797 18.9831C53.2855 18.9831 53.5993 18.9046 53.8211 18.7477C54.0429 18.5908 54.1538 18.3663 54.1538 18.0741C54.1538 17.8847 54.1106 17.7224 54.024 17.5872C53.9374 17.4519 53.7751 17.3275 53.5371 17.2138C53.299 17.1002 52.9554 16.9866 52.5064 16.873C52.0519 16.7594 51.6948 16.6349 51.4351 16.4997C51.1808 16.3644 50.9942 16.2021 50.8751 16.0127C50.7615 15.818 50.7047 15.5745 50.7047 15.2823C50.7047 14.9631 50.7805 14.6791 50.9319 14.4302C51.0888 14.1813 51.3107 13.9892 51.5974 13.854C51.8896 13.7133 52.2304 13.643 52.62 13.643C53.0312 13.643 53.3883 13.7214 53.6912 13.8783C53.9996 14.0352 54.2431 14.2517 54.4217 14.5276C54.6056 14.8035 54.7192 15.12 54.7625 15.4771L54.0321 15.5258C53.9996 15.2877 53.9239 15.0794 53.8049 14.9009C53.6858 14.7169 53.5262 14.5763 53.326 14.4789C53.1259 14.3761 52.8851 14.3247 52.6038 14.3247C52.2467 14.3247 51.9626 14.4113 51.7516 14.5844C51.5406 14.7521 51.4351 14.9739 51.4351 15.2499C51.4351 15.4338 51.4757 15.5826 51.5568 15.6962C51.6434 15.8098 51.7895 15.9126 51.9951 16.0046C52.2061 16.0912 52.5226 16.1859 52.9446 16.2887C53.4207 16.4077 53.7995 16.5484 54.0808 16.7107C54.3676 16.873 54.5731 17.0624 54.6976 17.2788C54.822 17.4898 54.8842 17.7387 54.8842 18.0254C54.8842 18.3554 54.7977 18.6449 54.6245 18.8938C54.4514 19.1372 54.2106 19.3266 53.9023 19.4619C53.5993 19.5971 53.253 19.6648 52.8635 19.6648ZM57.7201 19.6323C57.3252 19.6323 56.9789 19.5403 56.6813 19.3564C56.3838 19.1724 56.1538 18.91 55.9915 18.5692C55.8292 18.2283 55.748 17.8333 55.748 17.3843C55.748 16.9352 55.8292 16.5403 55.9915 16.1994C56.1538 15.8585 56.3838 15.5961 56.6813 15.4122C56.9789 15.2282 57.3252 15.1363 57.7201 15.1363C58.0502 15.1363 58.3423 15.1958 58.5966 15.3148C58.8563 15.4284 59.0673 15.5988 59.2296 15.8261C59.392 16.0479 59.4975 16.3157 59.5462 16.6295L58.832 16.6782C58.7833 16.3969 58.6588 16.1778 58.4587 16.0209C58.2639 15.864 58.0177 15.7855 57.7201 15.7855C57.3252 15.7855 57.0168 15.9262 56.795 16.2075C56.5731 16.4889 56.4622 16.8811 56.4622 17.3843C56.4622 17.8874 56.5731 18.2797 56.795 18.561C57.0168 18.8424 57.3252 18.9831 57.7201 18.9831C58.0177 18.9831 58.2639 18.9019 58.4587 18.7396C58.6588 18.5719 58.7833 18.3284 58.832 18.0092L59.5462 18.0579C59.4975 18.3771 59.392 18.6557 59.2296 18.8938C59.0673 19.1264 58.8563 19.3077 58.5966 19.4375C58.3369 19.5674 58.0448 19.6323 57.7201 19.6323ZM60.3352 13.7728H61.0169V16.1832L60.9358 16.1669C61.0115 15.8207 61.1711 15.5637 61.4146 15.396C61.658 15.2228 61.9583 15.1363 62.3154 15.1363C62.7699 15.1363 63.1216 15.285 63.3704 15.5826C63.6247 15.8802 63.7519 16.2751 63.7519 16.7675V19.5349H63.0702V16.9623C63.0702 16.5511 62.9944 16.2454 62.8429 16.0452C62.6968 15.8396 62.4723 15.7368 62.1693 15.7368C61.8122 15.7368 61.5309 15.845 61.3253 16.0614C61.1197 16.2778 61.0169 16.5808 61.0169 16.9704V19.5349H60.3352V13.7728ZM66.6362 19.6323C66.2358 19.6323 65.8869 19.5403 65.5893 19.3564C65.2917 19.1724 65.0618 18.9127 64.8995 18.5773C64.7426 18.2364 64.6641 17.8388 64.6641 17.3843C64.6641 16.9352 64.7426 16.5403 64.8995 16.1994C65.0618 15.8585 65.289 15.5961 65.5812 15.4122C65.8733 15.2282 66.2142 15.1363 66.6038 15.1363C66.9771 15.1363 67.3071 15.2255 67.5939 15.4041C67.8806 15.5772 68.1024 15.8342 68.2593 16.1751C68.4216 16.5159 68.5028 16.9217 68.5028 17.3924V17.5953H65.3783C65.3999 18.0498 65.519 18.396 65.7354 18.6341C65.9572 18.8667 66.2575 18.9831 66.6362 18.9831C66.9121 18.9831 67.1394 18.9208 67.3179 18.7964C67.5019 18.6665 67.6317 18.488 67.7075 18.2608L68.4379 18.3176C68.3243 18.7125 68.1051 19.0317 67.7805 19.2752C67.4613 19.5133 67.0799 19.6323 66.6362 19.6323ZM67.7562 16.9947C67.7237 16.5944 67.6047 16.2941 67.3991 16.0939C67.1989 15.8883 66.9338 15.7855 66.6038 15.7855C66.2683 15.7855 65.9924 15.8883 65.776 16.0939C65.565 16.2995 65.4324 16.5998 65.3783 16.9947H67.7562ZM69.497 15.2336H70.1219L70.1462 16.3211L70.0488 16.2887C70.0975 16.056 70.1814 15.8531 70.3004 15.68C70.4249 15.5069 70.5763 15.3743 70.7549 15.2823C70.9334 15.1849 71.1309 15.1363 71.3473 15.1363C71.7206 15.1363 72.0236 15.2391 72.2563 15.4446C72.4943 15.6448 72.6431 15.9316 72.7026 16.3049L72.5728 16.2968C72.6377 15.9289 72.7838 15.6448 73.011 15.4446C73.2383 15.2391 73.5331 15.1363 73.8956 15.1363C74.1986 15.1363 74.4556 15.2012 74.6666 15.331C74.883 15.4555 75.0453 15.6394 75.1535 15.8829C75.2618 16.1264 75.3159 16.4212 75.3159 16.7675V19.5349H74.6341V16.9136C74.6341 16.524 74.5584 16.2319 74.4069 16.0371C74.2554 15.8369 74.0309 15.7368 73.7333 15.7368C73.5331 15.7368 73.3573 15.7855 73.2058 15.8829C73.0597 15.9803 72.9461 16.1209 72.8649 16.3049C72.7838 16.4889 72.7432 16.708 72.7432 16.9623V19.5349H72.0615V16.9623C72.0615 16.5673 71.9912 16.2643 71.8505 16.0533C71.7098 15.8423 71.4853 15.7368 71.1769 15.7368C70.9767 15.7368 70.8009 15.7855 70.6494 15.8829C70.4979 15.9803 70.3816 16.1237 70.3004 16.313C70.2193 16.497 70.1787 16.7134 70.1787 16.9623V19.5349H69.497V15.2336ZM78.1994 19.6323C77.799 19.6323 77.45 19.5403 77.1525 19.3564C76.8549 19.1724 76.6249 18.9127 76.4626 18.5773C76.3057 18.2364 76.2273 17.8388 76.2273 17.3843C76.2273 16.9352 76.3057 16.5403 76.4626 16.1994C76.6249 15.8585 76.8522 15.5961 77.1443 15.4122C77.4365 15.2282 77.7774 15.1363 78.1669 15.1363C78.5402 15.1363 78.8703 15.2255 79.157 15.4041C79.4438 15.5772 79.6656 15.8342 79.8225 16.1751C79.9848 16.5159 80.066 16.9217 80.066 17.3924V17.5953H76.9414C76.9631 18.0498 77.0821 18.396 77.2985 18.6341C77.5204 18.8667 77.8206 18.9831 78.1994 18.9831C78.4753 18.9831 78.7025 18.9208 78.8811 18.7964C79.065 18.6665 79.1949 18.488 79.2706 18.2608L80.001 18.3176C79.8874 18.7125 79.6683 19.0317 79.3437 19.2752C79.0245 19.5133 78.643 19.6323 78.1994 19.6323ZM79.3193 16.9947C79.2869 16.5944 79.1678 16.2941 78.9622 16.0939C78.762 15.8883 78.4969 15.7855 78.1669 15.7855C77.8315 15.7855 77.5555 15.8883 77.3391 16.0939C77.1281 16.2995 76.9956 16.5998 76.9414 16.9947H79.3193Z" fill="black"/>
<rect width="114.544" height="33.0699" transform="translate(117.249)" fill="white"/>
<rect x="126.267" y="9.01733" width="11.7225" height="11.7225" rx="1.8794" fill="url(#paint0_linear_651_264)"/>
<rect x="141.596" y="9.01733" width="11.7225" height="11.7225" rx="1.8794" fill="#E07331"/>
<rect x="156.925" y="9.01733" width="11.7225" height="11.7225" rx="1.8794" fill="#18181A"/>
<rect x="172.255" y="9.01733" width="11.7225" height="11.7225" rx="1.8794" fill="#FCDC1E"/>
</g>
<g clip-path="url(#clip1_651_264)">
<rect width="114.544" height="33.0699" transform="translate(0 35.7749)" fill="white"/>
<path d="M12.3425 57.6353C12.026 57.6353 11.7581 57.5257 11.5389 57.3064C11.3196 57.0871 11.21 56.8193 11.21 56.5028V48.1178C11.21 47.8014 11.3196 47.5335 11.5389 47.3142C11.7581 47.095 12.026 46.9854 12.3425 46.9854H20.7274C21.0439 46.9854 21.3118 47.095 21.531 47.3142C21.7503 47.5335 21.8599 47.8014 21.8599 48.1178V56.5028C21.8599 56.8193 21.7503 57.0871 21.531 57.3064C21.3118 57.5257 21.0439 57.6353 20.7274 57.6353H12.3425ZM12.3425 56.6956H20.7274C20.7757 56.6956 20.8198 56.6755 20.8599 56.6353C20.9001 56.5952 20.9202 56.551 20.9202 56.5028V48.1178C20.9202 48.0696 20.9001 48.0254 20.8599 47.9854C20.8198 47.9452 20.7757 47.9251 20.7274 47.9251H12.3425C12.2942 47.9251 12.2501 47.9452 12.21 47.9854C12.1698 48.0254 12.1497 48.0696 12.1497 48.1178V56.5028C12.1497 56.551 12.1698 56.5952 12.21 56.6353C12.2501 56.6755 12.2942 56.6956 12.3425 56.6956ZM13.246 55.2861H19.872L17.812 52.5393L16.053 54.8283L14.8001 53.2259L13.246 55.2861Z" fill="#5F6368"/>
<path d="M30.646 55.4397C30.132 55.4397 29.6802 55.3206 29.2907 55.0826C28.9011 54.8391 28.5981 54.4901 28.3817 54.0357C28.1653 53.5812 28.0571 53.0483 28.0571 52.4369C28.0571 51.8255 28.1653 51.2926 28.3817 50.8381C28.5981 50.3782 28.9011 50.0266 29.2907 49.7831C29.6802 49.5396 30.132 49.4179 30.646 49.4179C31.3223 49.4179 31.8552 49.5883 32.2447 49.9292C32.6397 50.27 32.8994 50.7543 33.0238 51.3819L32.2853 51.4306C32.2042 51.0085 32.0256 50.6812 31.7497 50.4486C31.4792 50.2159 31.1113 50.0996 30.646 50.0996C30.2781 50.0996 29.9534 50.1943 29.6721 50.3836C29.3908 50.5676 29.1716 50.8354 29.0147 51.1871C28.8632 51.5388 28.7875 51.9554 28.7875 52.4369C28.7875 52.9184 28.8632 53.335 29.0147 53.6867C29.1716 54.033 29.3908 54.2981 29.6721 54.482C29.9534 54.666 30.2781 54.758 30.646 54.758C31.1383 54.758 31.5225 54.6308 31.7984 54.3765C32.0797 54.1222 32.2583 53.7624 32.334 53.2971L33.0725 53.3458C32.9643 53.9897 32.6992 54.501 32.2772 54.8797C31.8606 55.253 31.3169 55.4397 30.646 55.4397ZM35.7826 55.4072C35.3877 55.4072 35.0414 55.3152 34.7438 55.1313C34.4463 54.9473 34.2163 54.6876 34.054 54.3522C33.8917 54.0113 33.8105 53.6137 33.8105 53.1592C33.8105 52.7047 33.8917 52.3097 34.054 51.9743C34.2163 51.6334 34.4463 51.371 34.7438 51.1871C35.0414 51.0031 35.3877 50.9112 35.7826 50.9112C36.1722 50.9112 36.5157 51.0031 36.8133 51.1871C37.1109 51.371 37.3408 51.6334 37.5031 51.9743C37.6655 52.3097 37.7466 52.7047 37.7466 53.1592C37.7466 53.6137 37.6655 54.0113 37.5031 54.3522C37.3408 54.6876 37.1109 54.9473 36.8133 55.1313C36.5157 55.3152 36.1722 55.4072 35.7826 55.4072ZM35.7826 54.758C36.1776 54.758 36.4833 54.6173 36.6997 54.3359C36.9215 54.0492 37.0324 53.6569 37.0324 53.1592C37.0324 52.6614 36.9215 52.2719 36.6997 51.9905C36.4833 51.7038 36.1776 51.5604 35.7826 51.5604C35.3877 51.5604 35.0793 51.7011 34.8575 51.9824C34.6356 52.2638 34.5247 52.656 34.5247 53.1592C34.5247 53.6623 34.6356 54.0546 34.8575 54.3359C35.0793 54.6173 35.3877 54.758 35.7826 54.758ZM39.5906 55.3098C39.3255 55.3098 39.1172 55.2449 38.9657 55.115C38.8142 54.9798 38.7385 54.7742 38.7385 54.4983L38.7466 49.5477H39.4283V54.4414C39.4283 54.528 39.45 54.5956 39.4932 54.6443C39.5419 54.6876 39.6096 54.7093 39.6961 54.7093H40.0695V55.3098H39.5906ZM41.8177 55.3098C41.5526 55.3098 41.3443 55.2449 41.1928 55.115C41.0413 54.9798 40.9655 54.7742 40.9655 54.4983L40.9736 49.5477H41.6554V54.4414C41.6554 54.528 41.677 54.5956 41.7203 54.6443C41.769 54.6876 41.8366 54.7093 41.9232 54.7093H42.2965V55.3098H41.8177ZM44.8968 55.4072C44.4965 55.4072 44.1475 55.3152 43.8499 55.1313C43.5524 54.9473 43.3224 54.6876 43.1601 54.3522C43.0032 54.0113 42.9248 53.6137 42.9248 53.1592C42.9248 52.7101 43.0032 52.3152 43.1601 51.9743C43.3224 51.6334 43.5497 51.371 43.8418 51.1871C44.134 51.0031 44.4748 50.9112 44.8644 50.9112C45.2377 50.9112 45.5677 51.0004 45.8545 51.179C46.1412 51.3521 46.3631 51.6091 46.52 51.95C46.6823 52.2908 46.7634 52.6966 46.7634 53.1673V53.3702H43.6389C43.6606 53.8247 43.7796 54.1709 43.996 54.409C44.2178 54.6416 44.5181 54.758 44.8968 54.758C45.1728 54.758 45.4 54.6957 45.5786 54.5713C45.7625 54.4414 45.8924 54.2629 45.9681 54.0357L46.6985 54.0925C46.5849 54.4874 46.3658 54.8066 46.0411 55.0501C45.7219 55.2882 45.3405 55.4072 44.8968 55.4072ZM46.0168 52.7696C45.9843 52.3693 45.8653 52.069 45.6597 51.8688C45.4595 51.6632 45.1944 51.5604 44.8644 51.5604C44.5289 51.5604 44.253 51.6632 44.0366 51.8688C43.8256 52.0744 43.693 52.3747 43.6389 52.7696H46.0168ZM49.4619 55.4072C49.0669 55.4072 48.7206 55.3152 48.4231 55.1313C48.1255 54.9473 47.8956 54.6849 47.7333 54.3441C47.5709 54.0032 47.4898 53.6082 47.4898 53.1592C47.4898 52.7101 47.5709 52.3152 47.7333 51.9743C47.8956 51.6334 48.1255 51.371 48.4231 51.1871C48.7206 51.0031 49.0669 50.9112 49.4619 50.9112C49.7919 50.9112 50.0841 50.9707 50.3384 51.0897C50.5981 51.2033 50.8091 51.3737 50.9714 51.601C51.1337 51.8228 51.2392 52.0906 51.2879 52.4044L50.5737 52.4531C50.525 52.1718 50.4006 51.9527 50.2004 51.7958C50.0056 51.6389 49.7594 51.5604 49.4619 51.5604C49.0669 51.5604 48.7585 51.7011 48.5367 51.9824C48.3149 52.2638 48.204 52.656 48.204 53.1592C48.204 53.6623 48.3149 54.0546 48.5367 54.3359C48.7585 54.6173 49.0669 54.758 49.4619 54.758C49.7594 54.758 50.0056 54.6768 50.2004 54.5145C50.4006 54.3468 50.525 54.1033 50.5737 53.7841L51.2879 53.8328C51.2392 54.152 51.1337 54.4306 50.9714 54.6687C50.8091 54.9013 50.5981 55.0826 50.3384 55.2124C50.0787 55.3423 49.7865 55.4072 49.4619 55.4072ZM53.5642 55.3098C53.1746 55.3098 52.8852 55.2205 52.6958 55.042C52.5119 54.8635 52.4199 54.5848 52.4199 54.2061V50.0022H53.1016V54.1899C53.1016 54.3792 53.1422 54.5145 53.2233 54.5956C53.3099 54.6714 53.4452 54.7093 53.6291 54.7093H54.2459V55.3098H53.5642ZM51.7869 51.0085H54.2459V51.6091H51.7869V51.0085ZM55.1916 51.0085H55.8733V55.3098H55.1916V51.0085ZM55.1754 49.5396H55.8896V50.3349H55.1754V49.5396ZM58.8772 55.4072C58.4823 55.4072 58.136 55.3152 57.8385 55.1313C57.5409 54.9473 57.3109 54.6876 57.1486 54.3522C56.9863 54.0113 56.9052 53.6137 56.9052 53.1592C56.9052 52.7047 56.9863 52.3097 57.1486 51.9743C57.3109 51.6334 57.5409 51.371 57.8385 51.1871C58.136 51.0031 58.4823 50.9112 58.8772 50.9112C59.2668 50.9112 59.6104 51.0031 59.9079 51.1871C60.2055 51.371 60.4354 51.6334 60.5978 51.9743C60.7601 52.3097 60.8412 52.7047 60.8412 53.1592C60.8412 53.6137 60.7601 54.0113 60.5978 54.3522C60.4354 54.6876 60.2055 54.9473 59.9079 55.1313C59.6104 55.3152 59.2668 55.4072 58.8772 55.4072ZM58.8772 54.758C59.2722 54.758 59.5779 54.6173 59.7943 54.3359C60.0161 54.0492 60.1271 53.6569 60.1271 53.1592C60.1271 52.6614 60.0161 52.2719 59.7943 51.9905C59.5779 51.7038 59.2722 51.5604 58.8772 51.5604C58.4823 51.5604 58.1739 51.7011 57.9521 51.9824C57.7302 52.2638 57.6193 52.656 57.6193 53.1592C57.6193 53.6623 57.7302 54.0546 57.9521 54.3359C58.1739 54.6173 58.4823 54.758 58.8772 54.758ZM61.8331 51.0085H62.458L62.4824 52.1041L62.4012 52.0311C62.4769 51.6632 62.6393 51.3846 62.8881 51.1952C63.1424 51.0058 63.4454 50.9112 63.7971 50.9112C64.2678 50.9112 64.6276 51.0626 64.8765 51.3656C65.1253 51.6686 65.2498 52.0609 65.2498 52.5424V55.3098H64.5681V52.7372C64.5681 52.3314 64.495 52.0257 64.3489 51.8201C64.2029 51.6145 63.9702 51.5117 63.651 51.5117C63.3101 51.5117 63.0342 51.6199 62.8232 51.8363C62.6176 52.0473 62.5148 52.3476 62.5148 52.7372V55.3098H61.8331V51.0085Z" fill="black"/>
<rect width="114.544" height="33.0699" transform="translate(117.249 35.7749)" fill="white"/>
<path d="M127.013 49.5477H128.799C129.686 49.5477 130.368 49.7993 130.844 50.3025C131.325 50.8002 131.566 51.5117 131.566 52.4369C131.566 53.3567 131.331 54.0654 130.86 54.5632C130.389 55.0609 129.718 55.3098 128.847 55.3098H127.013V49.5477ZM128.799 54.6281C129.475 54.6281 129.984 54.4469 130.324 54.0844C130.665 53.7165 130.836 53.1673 130.836 52.4369C130.836 51.7011 130.665 51.1492 130.324 50.7813C129.984 50.4134 129.475 50.2294 128.799 50.2294H127.711V54.6281H128.799ZM132.456 51.0085H133.056L133.089 52.096L133.024 52.0717C133.078 51.7092 133.194 51.4414 133.373 51.2682C133.551 51.0951 133.795 51.0085 134.103 51.0085H134.525V51.6578H134.111C133.895 51.6578 133.714 51.6984 133.568 51.7795C133.427 51.8553 133.319 51.9716 133.243 52.1285C133.173 52.2854 133.137 52.4802 133.137 52.7128V55.3098H132.456V51.0085ZM136.494 55.4072C136.045 55.4072 135.69 55.3044 135.431 55.0988C135.171 54.8932 135.041 54.6065 135.041 54.2386C135.041 53.8706 135.149 53.5812 135.366 53.3702C135.582 53.1592 135.926 53.0104 136.396 52.9238L137.922 52.6398C137.922 52.2773 137.836 52.0068 137.662 51.8282C137.495 51.6497 137.24 51.5604 136.9 51.5604C136.607 51.5604 136.372 51.6253 136.193 51.7552C136.02 51.885 135.901 52.0771 135.836 52.3314L135.114 52.2746C135.195 51.858 135.393 51.5279 135.707 51.2845C136.026 51.0356 136.423 50.9112 136.9 50.9112C137.446 50.9112 137.865 51.0654 138.157 51.3737C138.455 51.6821 138.604 52.1123 138.604 52.6641V54.4414C138.604 54.5388 138.62 54.6092 138.652 54.6525C138.69 54.6903 138.75 54.7093 138.831 54.7093H139.001V55.3098C138.969 55.3152 138.931 55.3179 138.888 55.3179C138.845 55.3233 138.796 55.326 138.742 55.326C138.444 55.326 138.233 55.2557 138.109 55.115C137.984 54.9744 137.922 54.7417 137.922 54.4171L138.003 54.4333C137.949 54.7093 137.776 54.9419 137.484 55.1313C137.192 55.3152 136.862 55.4072 136.494 55.4072ZM136.559 54.8066C136.84 54.8066 137.083 54.7525 137.289 54.6443C137.495 54.5307 137.652 54.3792 137.76 54.1899C137.868 53.9951 137.922 53.7787 137.922 53.5406V53.2322L136.526 53.4919C136.245 53.5406 136.045 53.6218 135.926 53.7354C135.812 53.8436 135.755 53.9897 135.755 54.1736C135.755 54.3738 135.826 54.5307 135.966 54.6443C136.107 54.7525 136.304 54.8066 136.559 54.8066ZM141.562 55.4072C141.167 55.4072 140.821 55.3152 140.524 55.1313C140.226 54.9473 139.996 54.6849 139.834 54.3441C139.671 54.0032 139.59 53.6082 139.59 53.1592C139.59 52.7101 139.671 52.3152 139.834 51.9743C139.996 51.6334 140.226 51.371 140.524 51.1871C140.821 51.0031 141.167 50.9112 141.562 50.9112C141.892 50.9112 142.184 50.9707 142.439 51.0897C142.698 51.2033 142.909 51.3737 143.072 51.601C143.234 51.8228 143.34 52.0906 143.388 52.4044L142.674 52.4531C142.625 52.1718 142.501 51.9527 142.301 51.7958C142.106 51.6389 141.86 51.5604 141.562 51.5604C141.167 51.5604 140.859 51.7011 140.637 51.9824C140.415 52.2638 140.304 52.656 140.304 53.1592C140.304 53.6623 140.415 54.0546 140.637 54.3359C140.859 54.6173 141.167 54.758 141.562 54.758C141.86 54.758 142.106 54.6768 142.301 54.5145C142.501 54.3468 142.625 54.1033 142.674 53.7841L143.388 53.8328C143.34 54.152 143.234 54.4306 143.072 54.6687C142.909 54.9013 142.698 55.0826 142.439 55.2124C142.179 55.3423 141.887 55.4072 141.562 55.4072ZM146.001 55.4072C145.606 55.4072 145.259 55.3152 144.962 55.1313C144.664 54.9473 144.434 54.6876 144.272 54.3522C144.11 54.0113 144.028 53.6137 144.028 53.1592C144.028 52.7047 144.11 52.3097 144.272 51.9743C144.434 51.6334 144.664 51.371 144.962 51.1871C145.259 51.0031 145.606 50.9112 146.001 50.9112C146.39 50.9112 146.734 51.0031 147.031 51.1871C147.329 51.371 147.559 51.6334 147.721 51.9743C147.883 52.3097 147.965 52.7047 147.965 53.1592C147.965 53.6137 147.883 54.0113 147.721 54.3522C147.559 54.6876 147.329 54.9473 147.031 55.1313C146.734 55.3152 146.39 55.4072 146.001 55.4072ZM146.001 54.758C146.395 54.758 146.701 54.6173 146.918 54.3359C147.139 54.0492 147.25 53.6569 147.25 53.1592C147.25 52.6614 147.139 52.2719 146.918 51.9905C146.701 51.7038 146.395 51.5604 146.001 51.5604C145.606 51.5604 145.297 51.7011 145.075 51.9824C144.854 52.2638 144.743 52.656 144.743 53.1592C144.743 53.6623 144.854 54.0546 145.075 54.3359C145.297 54.6173 145.606 54.758 146.001 54.758ZM150.547 55.4072C150.174 55.4072 149.849 55.3477 149.573 55.2287C149.303 55.1042 149.092 54.9338 148.94 54.7174C148.794 54.4955 148.71 54.2413 148.689 53.9545L149.403 53.9058C149.446 54.1763 149.56 54.3873 149.744 54.5388C149.928 54.6849 150.195 54.758 150.547 54.758C150.85 54.758 151.085 54.7093 151.253 54.6119C151.426 54.5145 151.513 54.363 151.513 54.1574C151.513 54.0384 151.483 53.9437 151.424 53.8734C151.369 53.7976 151.264 53.7327 151.107 53.6786C150.956 53.6191 150.726 53.5623 150.417 53.5081C150.011 53.4378 149.689 53.3458 149.451 53.2322C149.213 53.1186 149.043 52.9806 148.94 52.8183C148.843 52.656 148.794 52.4585 148.794 52.2259C148.794 51.8363 148.937 51.5198 149.224 51.2764C149.511 51.0329 149.909 50.9112 150.417 50.9112C150.915 50.9112 151.31 51.041 151.602 51.3007C151.894 51.5604 152.075 51.8904 152.146 52.2908L151.432 52.3395C151.383 52.1014 151.269 51.9121 151.091 51.7714C150.918 51.6307 150.69 51.5604 150.409 51.5604C150.112 51.5604 149.887 51.6199 149.735 51.7389C149.584 51.8526 149.508 52.0041 149.508 52.1934C149.508 52.3341 149.541 52.4504 149.606 52.5424C149.676 52.629 149.784 52.702 149.93 52.7615C150.076 52.8156 150.282 52.8643 150.547 52.9076C150.985 52.9833 151.323 53.0753 151.561 53.1835C151.805 53.2863 151.975 53.4162 152.073 53.5731C152.176 53.7246 152.227 53.9193 152.227 54.1574C152.227 54.5469 152.067 54.8526 151.748 55.0745C151.434 55.2963 151.034 55.4072 150.547 55.4072Z" fill="black"/>
</g>
<g clip-path="url(#clip2_651_264)">
<rect width="114.544" height="33.0699" transform="translate(0 71.5503)" fill="white"/>
<path d="M18.0282 87.9635L16.8235 87.2805V85.9022L18.0282 85.2191L19.233 85.9022V87.2805L18.0282 87.9635ZM18.0282 89.0429L20.1727 87.8202V85.3624L18.0282 84.1397L15.8838 85.3624V87.8202L18.0282 89.0429ZM18.2741 92.3018H20.4932C20.4562 92.5131 20.3681 92.6872 20.2288 92.8242C20.0894 92.961 19.9109 93.0463 19.6932 93.0801L12.7383 93.9402C12.4258 93.9845 12.1453 93.9106 11.8968 93.7186C11.6482 93.5267 11.505 93.2745 11.4672 92.962L10.6673 86.4975C10.6295 86.1849 10.706 85.904 10.8968 85.6547C11.0875 85.4053 11.3391 85.2637 11.6515 85.23L12.3178 85.1601V86.0998L11.7781 86.1601C11.7218 86.1641 11.6776 86.1871 11.6456 86.2293C11.6134 86.2715 11.6013 86.3207 11.6094 86.3769L12.4069 92.8415C12.4149 92.8978 12.439 92.942 12.4792 92.974C12.5193 93.0062 12.5675 93.0183 12.6238 93.0102L18.2741 92.3018ZM14.7032 91.0489C14.3867 91.0489 14.1189 90.9393 13.8996 90.72C13.6803 90.5007 13.5707 90.2329 13.5707 89.9164V83.2663C13.5707 82.9498 13.6803 82.6819 13.8996 82.4627C14.1189 82.2434 14.3867 82.1338 14.7032 82.1338H21.3533C21.6698 82.1338 21.9377 82.2434 22.1569 82.4627C22.3762 82.6819 22.4858 82.9498 22.4858 83.2663V89.9164C22.4858 90.2329 22.3762 90.5007 22.1569 90.72C21.9377 90.9393 21.6698 91.0489 21.3533 91.0489H14.7032ZM14.7032 90.1092H21.3533C21.4096 90.1092 21.4558 90.0911 21.4919 90.055C21.528 90.0189 21.5461 89.9727 21.5461 89.9164V83.2663C21.5461 83.21 21.528 83.1638 21.4919 83.1277C21.4558 83.0916 21.4096 83.0735 21.3533 83.0735H14.7032C14.6469 83.0735 14.6007 83.0916 14.5646 83.1277C14.5285 83.1638 14.5104 83.21 14.5104 83.2663V89.9164C14.5104 89.9727 14.5285 90.0189 14.5646 90.055C14.6007 90.0911 14.6469 90.1092 14.7032 90.1092Z" fill="#5F6368"/>
<path d="M28.4061 85.3231H30.3863C31.0734 85.3231 31.5847 85.4503 31.9201 85.7046C32.261 85.9534 32.4314 86.343 32.4314 86.8732C32.4314 87.1221 32.3773 87.3412 32.2691 87.5306C32.1609 87.7199 32.004 87.8687 31.7984 87.9769C31.5982 88.0797 31.3628 88.1311 31.0923 88.1311L31.0842 88.0824C31.5711 88.0824 31.958 88.2123 32.2447 88.472C32.5315 88.7317 32.6749 89.0752 32.6749 89.5027C32.6749 90.0221 32.5044 90.417 32.1636 90.6875C31.8281 90.9527 31.3439 91.0852 30.7109 91.0852H28.4061V85.3231ZM30.7109 90.4035C31.1059 90.4035 31.4088 90.3223 31.6198 90.16C31.8363 89.9977 31.9445 89.7651 31.9445 89.4621C31.9445 89.1591 31.8363 88.9237 31.6198 88.756C31.4088 88.5829 31.1059 88.4963 30.7109 88.4963H29.104V90.4035H30.7109ZM30.3863 87.8146C30.8083 87.8146 31.1329 87.7362 31.3601 87.5793C31.5874 87.417 31.701 87.1924 31.701 86.9057C31.701 86.6027 31.5901 86.3782 31.3683 86.2321C31.1518 86.0806 30.8245 86.0048 30.3863 86.0048H29.104V87.8146H30.3863ZM34.6769 91.0852C34.4118 91.0852 34.2035 91.0203 34.052 90.8904C33.9005 90.7552 33.8247 90.5496 33.8247 90.2736L33.8329 85.3231H34.5146V90.2168C34.5146 90.3034 34.5362 90.371 34.5795 90.4197C34.6282 90.463 34.6958 90.4847 34.7824 90.4847H35.1557V91.0852H34.6769ZM37.7561 91.1826C37.3611 91.1826 37.0148 91.0906 36.7173 90.9067C36.4197 90.7227 36.1898 90.463 36.0274 90.1276C35.8651 89.7867 35.784 89.389 35.784 88.9346C35.784 88.4801 35.8651 88.0851 36.0274 87.7497C36.1898 87.4088 36.4197 87.1464 36.7173 86.9625C37.0148 86.7785 37.3611 86.6865 37.7561 86.6865C38.1456 86.6865 38.4892 86.7785 38.7867 86.9625C39.0843 87.1464 39.3143 87.4088 39.4766 87.7497C39.6389 88.0851 39.72 88.4801 39.72 88.9346C39.72 89.389 39.6389 89.7867 39.4766 90.1276C39.3143 90.463 39.0843 90.7227 38.7867 90.9067C38.4892 91.0906 38.1456 91.1826 37.7561 91.1826ZM37.7561 90.5333C38.151 90.5333 38.4567 90.3927 38.6731 90.1113C38.895 89.8246 39.0059 89.4323 39.0059 88.9346C39.0059 88.4368 38.895 88.0473 38.6731 87.7659C38.4567 87.4792 38.151 87.3358 37.7561 87.3358C37.3611 87.3358 37.0527 87.4765 36.8309 87.7578C36.6091 88.0391 36.4981 88.4314 36.4981 88.9346C36.4981 89.4377 36.6091 89.83 36.8309 90.1113C37.0527 90.3927 37.3611 90.5333 37.7561 90.5333ZM42.4162 91.1826C42.0212 91.1826 41.675 91.0906 41.3774 90.9067C41.0798 90.7227 40.8499 90.4603 40.6876 90.1194C40.5253 89.7786 40.4441 89.3836 40.4441 88.9346C40.4441 88.4855 40.5253 88.0905 40.6876 87.7497C40.8499 87.4088 41.0798 87.1464 41.3774 86.9625C41.675 86.7785 42.0212 86.6865 42.4162 86.6865C42.7462 86.6865 43.0384 86.7461 43.2927 86.8651C43.5524 86.9787 43.7634 87.1491 43.9257 87.3764C44.088 87.5982 44.1935 87.866 44.2422 88.1798L43.528 88.2285C43.4793 87.9472 43.3549 87.728 43.1547 87.5711C42.9599 87.4142 42.7138 87.3358 42.4162 87.3358C42.0212 87.3358 41.7128 87.4765 41.491 87.7578C41.2692 88.0391 41.1583 88.4314 41.1583 88.9346C41.1583 89.4377 41.2692 89.83 41.491 90.1113C41.7128 90.3927 42.0212 90.5333 42.4162 90.5333C42.7138 90.5333 42.9599 90.4522 43.1547 90.2899C43.3549 90.1222 43.4793 89.8787 43.528 89.5595L44.2422 89.6082C44.1935 89.9274 44.088 90.206 43.9257 90.4441C43.7634 90.6767 43.5524 90.858 43.2927 90.9878C43.033 91.1177 42.7408 91.1826 42.4162 91.1826ZM45.1501 85.3231H45.8319V89.0969L47.9257 86.7839H48.8346L47.1385 88.6099L48.9077 91.0852H48.0799L46.6759 89.0725L45.8319 89.9653V91.0852H45.1501V85.3231ZM51.2372 91.1826C50.8422 91.1826 50.4959 91.0906 50.1984 90.9067C49.9008 90.7227 49.6709 90.4603 49.5085 90.1194C49.3462 89.7786 49.2651 89.3836 49.2651 88.9346C49.2651 88.4855 49.3462 88.0905 49.5085 87.7497C49.6709 87.4088 49.9008 87.1464 50.1984 86.9625C50.4959 86.7785 50.8422 86.6865 51.2372 86.6865C51.5672 86.6865 51.8594 86.7461 52.1137 86.8651C52.3733 86.9787 52.5844 87.1491 52.7467 87.3764C52.909 87.5982 53.0145 87.866 53.0632 88.1798L52.349 88.2285C52.3003 87.9472 52.1759 87.728 51.9757 87.5711C51.7809 87.4142 51.5347 87.3358 51.2372 87.3358C50.8422 87.3358 50.5338 87.4765 50.312 87.7578C50.0902 88.0391 49.9792 88.4314 49.9792 88.9346C49.9792 89.4377 50.0902 89.83 50.312 90.1113C50.5338 90.3927 50.8422 90.5333 51.2372 90.5333C51.5347 90.5333 51.7809 90.4522 51.9757 90.2899C52.1759 90.1222 52.3003 89.8787 52.349 89.5595L53.0632 89.6082C53.0145 89.9274 52.909 90.206 52.7467 90.4441C52.5844 90.6767 52.3733 90.858 52.1137 90.9878C51.854 91.1177 51.5618 91.1826 51.2372 91.1826ZM53.8522 85.3231H54.5339V87.7335L54.4528 87.7172C54.5285 87.371 54.6881 87.114 54.9316 86.9462C55.1751 86.7731 55.4754 86.6865 55.8324 86.6865C56.2869 86.6865 56.6386 86.8353 56.8875 87.1329C57.1418 87.4305 57.2689 87.8254 57.2689 88.3178V91.0852H56.5872V88.5126C56.5872 88.1014 56.5114 87.7957 56.36 87.5955C56.2139 87.3899 55.9893 87.2871 55.6864 87.2871C55.3293 87.2871 55.0479 87.3953 54.8423 87.6117C54.6367 87.8281 54.5339 88.1311 54.5339 88.5207V91.0852H53.8522V85.3231ZM59.6735 91.1826C59.2244 91.1826 58.87 91.0798 58.6103 90.8742C58.3506 90.6686 58.2208 90.3819 58.2208 90.0139C58.2208 89.646 58.329 89.3566 58.5454 89.1456C58.7618 88.9346 59.1054 88.7858 59.5761 88.6992L61.1018 88.4152C61.1018 88.0527 61.0152 87.7822 60.8421 87.6036C60.6744 87.4251 60.4201 87.3358 60.0792 87.3358C59.7871 87.3358 59.5517 87.4007 59.3732 87.5306C59.2001 87.6604 59.081 87.8525 59.0161 88.1068L58.2938 88.05C58.375 87.6334 58.5724 87.3033 58.8863 87.0599C59.2055 86.811 59.6031 86.6865 60.0792 86.6865C60.6257 86.6865 61.045 86.8407 61.3372 87.1491C61.6347 87.4575 61.7835 87.8877 61.7835 88.4395V90.2168C61.7835 90.3142 61.7998 90.3846 61.8322 90.4278C61.8701 90.4657 61.9296 90.4847 62.0108 90.4847H62.1812V91.0852C62.1487 91.0906 62.1109 91.0933 62.0676 91.0933C62.0243 91.0987 61.9756 91.1014 61.9215 91.1014C61.6239 91.1014 61.4129 91.0311 61.2885 90.8904C61.164 90.7498 61.1018 90.5171 61.1018 90.1925L61.183 90.2087C61.1289 90.4847 60.9557 90.7173 60.6636 90.9067C60.3714 91.0906 60.0414 91.1826 59.6735 91.1826ZM59.7384 90.582C60.0197 90.582 60.2632 90.5279 60.4688 90.4197C60.6744 90.3061 60.8313 90.1546 60.9395 89.9653C61.0477 89.7705 61.1018 89.5541 61.1018 89.316V89.0076L59.7059 89.2673C59.4246 89.316 59.2244 89.3972 59.1054 89.5108C58.9918 89.619 58.9349 89.7651 58.9349 89.949C58.9349 90.1492 59.0053 90.3061 59.146 90.4197C59.2866 90.5279 59.4841 90.582 59.7384 90.582ZM63.117 86.7839H63.7987V91.0852H63.117V86.7839ZM63.1008 85.315H63.815V86.1103H63.1008V85.315ZM64.9795 86.7839H65.6044L65.6287 87.8795L65.5476 87.8065C65.6233 87.4386 65.7856 87.16 66.0345 86.9706C66.2888 86.7812 66.5918 86.6865 66.9435 86.6865C67.4142 86.6865 67.774 86.838 68.0228 87.141C68.2717 87.444 68.3962 87.8363 68.3962 88.3178V91.0852H67.7144V88.5126C67.7144 88.1068 67.6414 87.8011 67.4953 87.5955C67.3492 87.3899 67.1166 87.2871 66.7974 87.2871C66.4565 87.2871 66.1806 87.3953 65.9696 87.6117C65.764 87.8227 65.6612 88.123 65.6612 88.5126V91.0852H64.9795V86.7839Z" fill="black"/>
<rect width="114.544" height="33.0699" transform="translate(117.249 71.5503)" fill="white"/>
<path d="M127.013 85.3231H127.711V90.7606L127.362 90.4035H130.592V91.0852H127.013V85.3231ZM133.774 91.2151C133.331 91.2151 132.944 91.1285 132.614 90.9554C132.289 90.7822 132.037 90.5333 131.859 90.2087C131.686 89.8841 131.599 89.5054 131.599 89.0725V85.315H132.297V89.0725C132.297 89.5378 132.424 89.8976 132.679 90.1519C132.938 90.4062 133.303 90.5333 133.774 90.5333C134.239 90.5333 134.599 90.4062 134.854 90.1519C135.113 89.8976 135.243 89.5378 135.243 89.0725V85.315H135.941V89.0725C135.941 89.5054 135.852 89.8841 135.673 90.2087C135.5 90.5333 135.249 90.7822 134.918 90.9554C134.594 91.1285 134.212 91.2151 133.774 91.2151ZM137.316 85.3231H138.014V88.1879L140.603 85.3231H141.488L139.232 87.8227L141.642 91.0852H140.79L138.761 88.3421L138.014 89.1618V91.0852H137.316V85.3231ZM144.298 91.2151C143.86 91.2151 143.476 91.1339 143.146 90.9716C142.816 90.8039 142.553 90.5712 142.359 90.2736C142.164 89.9761 142.05 89.6325 142.018 89.243L142.748 89.1943C142.786 89.481 142.87 89.7245 143 89.9247C143.13 90.1249 143.303 90.2763 143.519 90.3791C143.741 90.4819 144.006 90.5333 144.314 90.5333C144.72 90.5333 145.034 90.4549 145.256 90.298C145.478 90.1411 145.589 89.9166 145.589 89.6244C145.589 89.435 145.545 89.2727 145.459 89.1375C145.372 89.0022 145.21 88.8778 144.972 88.7641C144.734 88.6505 144.39 88.5369 143.941 88.4233C143.487 88.3097 143.13 88.1852 142.87 88.05C142.616 87.9147 142.429 87.7524 142.31 87.563C142.196 87.3683 142.139 87.1248 142.139 86.8326C142.139 86.5134 142.215 86.2294 142.367 85.9805C142.524 85.7316 142.745 85.5395 143.032 85.4043C143.324 85.2636 143.665 85.1933 144.055 85.1933C144.466 85.1933 144.823 85.2717 145.126 85.4286C145.434 85.5855 145.678 85.8019 145.856 86.0779C146.04 86.3538 146.154 86.6703 146.197 87.0274L145.467 87.0761C145.434 86.838 145.359 86.6297 145.24 86.4512C145.121 86.2672 144.961 86.1266 144.761 86.0292C144.561 85.9264 144.32 85.875 144.038 85.875C143.681 85.875 143.397 85.9616 143.186 86.1347C142.975 86.3024 142.87 86.5242 142.87 86.8002C142.87 86.9841 142.91 87.1329 142.992 87.2465C143.078 87.3601 143.224 87.4629 143.43 87.5549C143.641 87.6415 143.957 87.7362 144.379 87.839C144.855 87.958 145.234 88.0987 145.515 88.261C145.802 88.4233 146.008 88.6126 146.132 88.8291C146.257 89.0401 146.319 89.289 146.319 89.5757C146.319 89.9057 146.232 90.1952 146.059 90.4441C145.886 90.6875 145.645 90.8769 145.337 91.0122C145.034 91.1474 144.688 91.2151 144.298 91.2151ZM149.828 91.2151C149.287 91.2151 148.819 91.096 148.424 90.858C148.029 90.6145 147.726 90.2682 147.515 89.8192C147.304 89.3647 147.199 88.8291 147.199 88.2123C147.199 87.5955 147.304 87.0599 147.515 86.6054C147.726 86.1509 148.029 85.8019 148.424 85.5585C148.819 85.315 149.287 85.1933 149.828 85.1933C150.375 85.1933 150.846 85.315 151.241 85.5585C151.636 85.8019 151.938 86.1509 152.149 86.6054C152.36 87.0599 152.466 87.5955 152.466 88.2123C152.466 88.8291 152.36 89.3647 152.149 89.8192C151.938 90.2682 151.636 90.6145 151.241 90.858C150.846 91.096 150.375 91.2151 149.828 91.2151ZM149.828 90.5333C150.223 90.5333 150.564 90.4414 150.851 90.2574C151.138 90.0735 151.357 89.8083 151.508 89.4621C151.66 89.1104 151.736 88.6938 151.736 88.2123C151.736 87.7308 151.66 87.3142 151.508 86.9625C151.357 86.6108 151.138 86.343 150.851 86.159C150.564 85.9697 150.223 85.875 149.828 85.875C149.433 85.875 149.093 85.9697 148.806 86.159C148.525 86.343 148.308 86.6108 148.157 86.9625C148.005 87.3142 147.929 87.7308 147.929 88.2123C147.929 88.6938 148.005 89.1104 148.157 89.4621C148.308 89.8083 148.525 90.0735 148.806 90.2574C149.093 90.4414 149.433 90.5333 149.828 90.5333Z" fill="black"/>
</g>
<g clip-path="url(#clip3_651_264)">
<rect width="114.544" height="33.0699" transform="translate(0 107.325)" fill="white"/>
<path d="M16.5229 129.812C15.7109 129.812 14.9439 129.656 14.2219 129.343C13.4998 129.03 12.8693 128.604 12.3304 128.065C11.7914 127.526 11.3655 126.895 11.0527 126.171C10.7399 125.447 10.5835 124.677 10.5835 123.861C10.5835 123.034 10.7441 122.259 11.0654 121.535C11.3867 120.811 11.823 120.181 12.3744 119.645C12.9257 119.11 13.5707 118.686 14.3093 118.375C15.0478 118.065 15.8354 117.909 16.6723 117.909C17.4554 117.909 18.1975 118.043 18.8986 118.31C19.5998 118.577 20.2157 118.947 20.7461 119.419C21.2766 119.891 21.6992 120.452 22.014 121.102C22.3289 121.753 22.4864 122.457 22.4864 123.217C22.4864 124.302 22.1641 125.15 21.5196 125.762C20.8751 126.374 20.0488 126.68 19.0408 126.68H17.906C17.7276 126.68 17.5851 126.738 17.4782 126.854C17.3714 126.971 17.318 127.109 17.318 127.268C17.318 127.461 17.3963 127.662 17.553 127.871C17.7096 128.08 17.7879 128.32 17.7879 128.59C17.7879 129.004 17.6734 129.311 17.4446 129.512C17.2156 129.712 16.9084 129.812 16.5229 129.812ZM13.0894 124.33C13.3126 124.33 13.4989 124.256 13.6483 124.106C13.7977 123.957 13.8725 123.771 13.8725 123.547C13.8725 123.324 13.7977 123.138 13.6483 122.988C13.4989 122.839 13.3126 122.764 13.0894 122.764C12.8661 122.764 12.6798 122.839 12.5304 122.988C12.381 123.138 12.3063 123.324 12.3063 123.547C12.3063 123.771 12.381 123.957 12.5304 124.106C12.6798 124.256 12.8661 124.33 13.0894 124.33ZM14.9688 121.825C15.192 121.825 15.3783 121.75 15.5277 121.6C15.6772 121.451 15.7519 121.265 15.7519 121.042C15.7519 120.818 15.6772 120.632 15.5277 120.483C15.3783 120.333 15.192 120.258 14.9688 120.258C14.7455 120.258 14.5592 120.333 14.4098 120.483C14.2604 120.632 14.1857 120.818 14.1857 121.042C14.1857 121.265 14.2604 121.451 14.4098 121.6C14.5592 121.75 14.7455 121.825 14.9688 121.825ZM18.1011 121.825C18.3243 121.825 18.5107 121.75 18.6601 121.6C18.8095 121.451 18.8842 121.265 18.8842 121.042C18.8842 120.818 18.8095 120.632 18.6601 120.483C18.5107 120.333 18.3243 120.258 18.1011 120.258C17.8779 120.258 17.6916 120.333 17.5421 120.483C17.3927 120.632 17.318 120.818 17.318 121.042C17.318 121.265 17.3927 121.451 17.5421 121.6C17.6916 121.75 17.8779 121.825 18.1011 121.825ZM19.9805 124.33C20.2037 124.33 20.3901 124.256 20.5395 124.106C20.6889 123.957 20.7636 123.771 20.7636 123.547C20.7636 123.324 20.6889 123.138 20.5395 122.988C20.3901 122.839 20.2037 122.764 19.9805 122.764C19.7573 122.764 19.571 122.839 19.4215 122.988C19.2721 123.138 19.1974 123.324 19.1974 123.547C19.1974 123.771 19.2721 123.957 19.4215 124.106C19.571 124.256 19.7573 124.33 19.9805 124.33ZM16.5229 128.872C16.6249 128.872 16.7046 128.847 16.762 128.797C16.8195 128.747 16.8482 128.678 16.8482 128.59C16.8482 128.444 16.7699 128.28 16.6133 128.098C16.4566 127.915 16.3783 127.63 16.3783 127.241C16.3783 126.795 16.5297 126.433 16.8325 126.156C17.1353 125.879 17.506 125.74 17.9445 125.74H19.0408C19.7782 125.74 20.3802 125.524 20.8468 125.092C21.3134 124.66 21.5467 124.035 21.5467 123.217C21.5467 121.95 21.0608 120.905 20.0889 120.083C19.1171 119.26 17.9783 118.849 16.6723 118.849C15.2403 118.849 14.0241 119.334 13.0237 120.305C12.0234 121.276 11.5232 122.462 11.5232 123.861C11.5232 125.249 12.0113 126.432 12.9876 127.408C13.9638 128.384 15.1423 128.872 16.5229 128.872Z" fill="#5F6368"/>
<path d="M28.4061 121.098H30.4755C30.8976 121.098 31.26 121.169 31.563 121.309C31.8714 121.445 32.1068 121.645 32.2691 121.91C32.4314 122.17 32.5126 122.481 32.5126 122.843C32.5126 123.211 32.4314 123.53 32.2691 123.801C32.1068 124.066 31.8714 124.269 31.563 124.409C31.26 124.55 30.8976 124.62 30.4755 124.62H29.104V126.86H28.4061V121.098ZM30.4755 123.939C30.9084 123.939 31.233 123.847 31.4494 123.663C31.6712 123.479 31.7822 123.206 31.7822 122.843C31.7822 122.491 31.6712 122.226 31.4494 122.048C31.233 121.869 30.9084 121.78 30.4755 121.78H29.104V123.939H30.4755ZM34.5737 126.958C34.1247 126.958 33.7703 126.855 33.5106 126.649C33.2509 126.444 33.121 126.157 33.121 125.789C33.121 125.421 33.2292 125.132 33.4457 124.921C33.6621 124.71 34.0056 124.561 34.4763 124.474L36.0021 124.19C36.0021 123.828 35.9155 123.557 35.7424 123.379C35.5747 123.2 35.3204 123.111 34.9795 123.111C34.6873 123.111 34.452 123.176 34.2735 123.306C34.1003 123.436 33.9813 123.628 33.9164 123.882L33.1941 123.825C33.2752 123.409 33.4727 123.078 33.7865 122.835C34.1057 122.586 34.5034 122.462 34.9795 122.462C35.526 122.462 35.9453 122.616 36.2374 122.924C36.535 123.233 36.6838 123.663 36.6838 124.215V125.992C36.6838 126.089 36.7 126.16 36.7325 126.203C36.7704 126.241 36.8299 126.26 36.911 126.26H37.0815V126.86C37.049 126.866 37.0111 126.868 36.9678 126.868C36.9246 126.874 36.8759 126.877 36.8218 126.877C36.5242 126.877 36.3132 126.806 36.1887 126.666C36.0643 126.525 36.0021 126.292 36.0021 125.968L36.0832 125.984C36.0291 126.26 35.856 126.492 35.5638 126.682C35.2717 126.866 34.9416 126.958 34.5737 126.958ZM34.6387 126.357C34.92 126.357 35.1635 126.303 35.3691 126.195C35.5747 126.081 35.7316 125.93 35.8398 125.74C35.948 125.546 36.0021 125.329 36.0021 125.091V124.783L34.6062 125.042C34.3249 125.091 34.1247 125.172 34.0056 125.286C33.892 125.394 33.8352 125.54 33.8352 125.724C33.8352 125.924 33.9055 126.081 34.0462 126.195C34.1869 126.303 34.3844 126.357 34.6387 126.357ZM38.7902 126.86C38.5251 126.86 38.3168 126.795 38.1653 126.666C38.0138 126.53 37.938 126.325 37.938 126.049L37.9461 121.098H38.6279V125.992C38.6279 126.079 38.6495 126.146 38.6928 126.195C38.7415 126.238 38.8091 126.26 38.8957 126.26H39.269V126.86H38.7902ZM41.8693 126.958C41.469 126.958 41.12 126.866 40.8224 126.682C40.5249 126.498 40.2949 126.238 40.1326 125.903C39.9757 125.562 39.8973 125.164 39.8973 124.71C39.8973 124.261 39.9757 123.866 40.1326 123.525C40.2949 123.184 40.5222 122.922 40.8143 122.738C41.1065 122.554 41.4473 122.462 41.8369 122.462C42.2102 122.462 42.5402 122.551 42.827 122.73C43.1137 122.903 43.3356 123.16 43.4925 123.5C43.6548 123.841 43.7359 124.247 43.7359 124.718V124.921H40.6114C40.6331 125.375 40.7521 125.721 40.9685 125.96C41.1903 126.192 41.4906 126.308 41.8693 126.308C42.1453 126.308 42.3725 126.246 42.5511 126.122C42.735 125.992 42.8649 125.813 42.9406 125.586L43.671 125.643C43.5574 126.038 43.3383 126.357 43.0136 126.601C42.6944 126.839 42.313 126.958 41.8693 126.958ZM42.9893 124.32C42.9568 123.92 42.8378 123.62 42.6322 123.419C42.432 123.214 42.1669 123.111 41.8369 123.111C41.5014 123.111 41.2255 123.214 41.0091 123.419C40.7981 123.625 40.6655 123.925 40.6114 124.32H42.9893ZM46.0985 126.86C45.7089 126.86 45.4195 126.771 45.2301 126.593C45.0461 126.414 44.9542 126.135 44.9542 125.757V121.553H45.6359V125.74C45.6359 125.93 45.6765 126.065 45.7576 126.146C45.8442 126.222 45.9794 126.26 46.1634 126.26H46.7802V126.86H46.0985ZM44.3211 122.559H46.7802V123.16H44.3211V122.559ZM48.5494 126.86C48.1598 126.86 47.8704 126.771 47.681 126.593C47.4971 126.414 47.4051 126.135 47.4051 125.757V121.553H48.0868V125.74C48.0868 125.93 48.1274 126.065 48.2085 126.146C48.2951 126.222 48.4303 126.26 48.6143 126.26H49.2311V126.86H48.5494ZM46.7721 122.559H49.2311V123.16H46.7721V122.559ZM51.7682 126.958C51.3678 126.958 51.0188 126.866 50.7213 126.682C50.4237 126.498 50.1937 126.238 50.0314 125.903C49.8745 125.562 49.7961 125.164 49.7961 124.71C49.7961 124.261 49.8745 123.866 50.0314 123.525C50.1937 123.184 50.421 122.922 50.7131 122.738C51.0053 122.554 51.3462 122.462 51.7357 122.462C52.109 122.462 52.4391 122.551 52.7258 122.73C53.0126 122.903 53.2344 123.16 53.3913 123.5C53.5536 123.841 53.6348 124.247 53.6348 124.718V124.921H50.5102C50.5319 125.375 50.6509 125.721 50.8673 125.96C51.0892 126.192 51.3894 126.308 51.7682 126.308C52.0441 126.308 52.2713 126.246 52.4499 126.122C52.6338 125.992 52.7637 125.813 52.8394 125.586L53.5698 125.643C53.4562 126.038 53.2371 126.357 52.9125 126.601C52.5933 126.839 52.2118 126.958 51.7682 126.958ZM52.8881 124.32C52.8557 123.92 52.7366 123.62 52.531 123.419C52.3308 123.214 52.0657 123.111 51.7357 123.111C51.4003 123.111 51.1243 123.214 50.9079 123.419C50.6969 123.625 50.5644 123.925 50.5102 124.32H52.8881Z" fill="black"/>
<rect width="114.544" height="33.0699" transform="translate(117.249 107.325)" fill="white"/>
<path d="M127.013 121.098H127.711V126.86H127.013V121.098ZM130.759 128.175C130.456 128.175 130.177 128.124 129.923 128.021C129.674 127.918 129.466 127.772 129.298 127.583C129.13 127.393 129.017 127.174 128.957 126.925L129.671 126.877C129.742 127.093 129.861 127.255 130.028 127.364C130.196 127.472 130.44 127.526 130.759 127.526C131.154 127.526 131.454 127.447 131.66 127.29C131.865 127.134 131.968 126.898 131.968 126.584V125.886C131.86 126.114 131.692 126.295 131.465 126.43C131.243 126.565 130.991 126.633 130.71 126.633C130.348 126.633 130.023 126.547 129.736 126.373C129.455 126.195 129.233 125.949 129.071 125.635C128.914 125.316 128.835 124.953 128.835 124.547C128.835 124.142 128.914 123.782 129.071 123.468C129.228 123.149 129.444 122.903 129.72 122.73C130.001 122.551 130.321 122.462 130.678 122.462C130.981 122.462 131.251 122.532 131.489 122.673C131.733 122.813 131.903 123.003 132.001 123.241V122.559H132.65V126.568C132.65 127.071 132.482 127.464 132.147 127.745C131.811 128.032 131.349 128.175 130.759 128.175ZM130.743 125.984C130.986 125.984 131.2 125.927 131.384 125.813C131.568 125.694 131.711 125.527 131.814 125.31C131.917 125.094 131.968 124.84 131.968 124.547C131.973 124.255 131.925 124.001 131.822 123.785C131.725 123.568 131.581 123.403 131.392 123.289C131.208 123.17 130.991 123.111 130.743 123.111C130.369 123.111 130.077 123.241 129.866 123.5C129.655 123.755 129.55 124.104 129.55 124.547C129.55 124.991 129.655 125.343 129.866 125.602C130.083 125.857 130.375 125.984 130.743 125.984ZM133.946 122.559H134.571L134.595 123.655L134.514 123.582C134.59 123.214 134.752 122.935 135.001 122.746C135.255 122.556 135.558 122.462 135.91 122.462C136.38 122.462 136.74 122.613 136.989 122.916C137.238 123.219 137.362 123.611 137.362 124.093V126.86H136.681V124.288C136.681 123.882 136.608 123.576 136.462 123.371C136.315 123.165 136.083 123.062 135.764 123.062C135.423 123.062 135.147 123.17 134.936 123.387C134.73 123.598 134.627 123.898 134.627 124.288V126.86H133.946V122.559ZM138.661 122.559H139.343V126.86H138.661V122.559ZM138.645 121.09H139.359V121.885H138.645V121.09ZM141.892 126.86C141.503 126.86 141.213 126.771 141.024 126.593C140.84 126.414 140.748 126.135 140.748 125.757V121.553H141.43V125.74C141.43 125.93 141.47 126.065 141.551 126.146C141.638 126.222 141.773 126.26 141.957 126.26H142.574V126.86H141.892ZM140.115 122.559H142.574V123.16H140.115V122.559ZM145.105 126.958C144.705 126.958 144.356 126.866 144.058 126.682C143.76 126.498 143.531 126.238 143.368 125.903C143.211 125.562 143.133 125.164 143.133 124.71C143.133 124.261 143.211 123.866 143.368 123.525C143.531 123.184 143.758 122.922 144.05 122.738C144.342 122.554 144.683 122.462 145.072 122.462C145.446 122.462 145.776 122.551 146.063 122.73C146.349 122.903 146.571 123.16 146.728 123.5C146.89 123.841 146.972 124.247 146.972 124.718V124.921H143.847C143.869 125.375 143.988 125.721 144.204 125.96C144.426 126.192 144.726 126.308 145.105 126.308C145.381 126.308 145.608 126.246 145.787 126.122C145.971 125.992 146.1 125.813 146.176 125.586L146.907 125.643C146.793 126.038 146.574 126.357 146.249 126.601C145.93 126.839 145.549 126.958 145.105 126.958ZM146.225 124.32C146.192 123.92 146.073 123.62 145.868 123.419C145.668 123.214 145.403 123.111 145.072 123.111C144.737 123.111 144.461 123.214 144.245 123.419C144.034 123.625 143.901 123.925 143.847 124.32H146.225Z" fill="black"/>
</g>
<g clip-path="url(#clip4_651_264)">
<rect width="114.544" height="33.0699" transform="translate(0 143.1)" fill="white"/>
<path d="M12.3425 162.454C12.026 162.454 11.7581 162.345 11.5389 162.125C11.3196 161.906 11.21 161.638 11.21 161.322V157.949C11.21 157.632 11.3196 157.364 11.5389 157.145C11.7581 156.926 12.026 156.816 12.3425 156.816H20.7274C21.0439 156.816 21.3118 156.926 21.531 157.145C21.7503 157.364 21.8599 157.632 21.8599 157.949V161.322C21.8599 161.638 21.7503 161.906 21.531 162.125C21.3118 162.345 21.0439 162.454 20.7274 162.454H12.3425ZM12.3425 161.515H20.7274C20.7757 161.515 20.8198 161.495 20.8599 161.454C20.9001 161.414 20.9202 161.37 20.9202 161.322V157.949C20.9202 157.9 20.9001 157.856 20.8599 157.816C20.8198 157.776 20.7757 157.756 20.7274 157.756H12.3425C12.2942 157.756 12.2501 157.776 12.21 157.816C12.1698 157.856 12.1497 157.9 12.1497 157.949V161.322C12.1497 161.37 12.1698 161.414 12.21 161.454C12.2501 161.495 12.2942 161.515 12.3425 161.515Z" fill="#5F6368"/>
<path d="M28.4061 156.873H32.0256V157.555H28.755L29.104 157.198V159.843L28.755 159.486H31.8795V160.152H28.755L29.104 159.795V162.635H28.4061V156.873ZM33.0956 158.334H33.6962L33.7286 159.421L33.6637 159.397C33.7178 159.035 33.8341 158.767 34.0127 158.594C34.1912 158.421 34.4347 158.334 34.7431 158.334H35.1651V158.983H34.7512C34.5348 158.983 34.3535 159.024 34.2075 159.105C34.0668 159.181 33.9586 159.297 33.8828 159.454C33.8125 159.611 33.7773 159.806 33.7773 160.038V162.635H33.0956V158.334ZM37.1336 162.733C36.6846 162.733 36.3302 162.63 36.0705 162.424C35.8108 162.219 35.6809 161.932 35.6809 161.564C35.6809 161.196 35.7891 160.907 36.0056 160.696C36.222 160.485 36.5655 160.336 37.0362 160.249L38.562 159.965C38.562 159.603 38.4754 159.332 38.3023 159.154C38.1346 158.975 37.8803 158.886 37.5394 158.886C37.2473 158.886 37.0119 158.951 36.8334 159.081C36.6602 159.21 36.5412 159.403 36.4763 159.657L35.754 159.6C35.8351 159.183 36.0326 158.853 36.3464 158.61C36.6656 158.361 37.0633 158.237 37.5394 158.237C38.0859 158.237 38.5052 158.391 38.7973 158.699C39.0949 159.008 39.2437 159.438 39.2437 159.99V161.767C39.2437 161.864 39.2599 161.935 39.2924 161.978C39.3303 162.016 39.3898 162.035 39.4709 162.035H39.6414V162.635C39.6089 162.641 39.571 162.643 39.5277 162.643C39.4845 162.649 39.4358 162.651 39.3817 162.651C39.0841 162.651 38.8731 162.581 38.7486 162.44C38.6242 162.3 38.562 162.067 38.562 161.743L38.6431 161.759C38.589 162.035 38.4159 162.267 38.1237 162.457C37.8316 162.641 37.5015 162.733 37.1336 162.733ZM37.1986 162.132C37.4799 162.132 37.7234 162.078 37.929 161.97C38.1346 161.856 38.2915 161.705 38.3997 161.515C38.5079 161.321 38.562 161.104 38.562 160.866V160.558L37.1661 160.817C36.8848 160.866 36.6846 160.947 36.5655 161.061C36.4519 161.169 36.3951 161.315 36.3951 161.499C36.3951 161.699 36.4654 161.856 36.6061 161.97C36.7468 162.078 36.9443 162.132 37.1986 162.132ZM40.5376 158.334H41.1625L41.1868 159.421L41.0894 159.389C41.1381 159.156 41.222 158.953 41.341 158.78C41.4654 158.607 41.6169 158.475 41.7955 158.383C41.974 158.285 42.1715 158.237 42.3879 158.237C42.7612 158.237 43.0642 158.339 43.2969 158.545C43.5349 158.745 43.6837 159.032 43.7432 159.405L43.6134 159.397C43.6783 159.029 43.8244 158.745 44.0516 158.545C44.2789 158.339 44.5737 158.237 44.9362 158.237C45.2392 158.237 45.4962 158.302 45.7072 158.431C45.9236 158.556 46.0859 158.74 46.1941 158.983C46.3023 159.227 46.3565 159.522 46.3565 159.868V162.635H45.6747V160.014C45.6747 159.624 45.599 159.332 45.4475 159.137C45.296 158.937 45.0715 158.837 44.7739 158.837C44.5737 158.837 44.3979 158.886 44.2464 158.983C44.1003 159.081 43.9867 159.221 43.9055 159.405C43.8244 159.589 43.7838 159.808 43.7838 160.063V162.635H43.1021V160.063C43.1021 159.668 43.0318 159.365 42.8911 159.154C42.7504 158.943 42.5259 158.837 42.2175 158.837C42.0173 158.837 41.8415 158.886 41.69 158.983C41.5385 159.081 41.4222 159.224 41.341 159.413C41.2599 159.597 41.2193 159.814 41.2193 160.063V162.635H40.5376V158.334ZM49.24 162.733C48.8396 162.733 48.4906 162.641 48.1931 162.457C47.8955 162.273 47.6655 162.013 47.5032 161.678C47.3463 161.337 47.2679 160.939 47.2679 160.485C47.2679 160.036 47.3463 159.641 47.5032 159.3C47.6655 158.959 47.8928 158.696 48.1849 158.513C48.4771 158.329 48.818 158.237 49.2075 158.237C49.5808 158.237 49.9109 158.326 50.1976 158.504C50.4844 158.678 50.7062 158.935 50.8631 159.275C51.0254 159.616 51.1066 160.022 51.1066 160.493V160.696H47.982C48.0037 161.15 48.1227 161.496 48.3391 161.734C48.561 161.967 48.8612 162.083 49.24 162.083C49.5159 162.083 49.7431 162.021 49.9217 161.897C50.1056 161.767 50.2355 161.588 50.3112 161.361L51.0416 161.418C50.928 161.813 50.7089 162.132 50.3843 162.376C50.0651 162.614 49.6836 162.733 49.24 162.733ZM50.3599 160.095C50.3275 159.695 50.2084 159.394 50.0028 159.194C49.8026 158.989 49.5375 158.886 49.2075 158.886C48.8721 158.886 48.5961 158.989 48.3797 159.194C48.1687 159.4 48.0361 159.7 47.982 160.095H50.3599Z" fill="black"/>
<rect width="114.544" height="33.0699" transform="translate(117.249 143.1)" fill="white"/>
<path d="M127.013 156.873H128.993C129.681 156.873 130.192 157 130.527 157.255C130.868 157.503 131.039 157.893 131.039 158.423C131.039 158.672 130.984 158.891 130.876 159.081C130.768 159.27 130.611 159.419 130.406 159.527C130.205 159.63 129.97 159.681 129.7 159.681L129.691 159.632C130.178 159.632 130.565 159.762 130.852 160.022C131.139 160.282 131.282 160.625 131.282 161.053C131.282 161.572 131.112 161.967 130.771 162.238C130.435 162.503 129.951 162.635 129.318 162.635H127.013V156.873ZM129.318 161.954C129.713 161.954 130.016 161.872 130.227 161.71C130.443 161.548 130.552 161.315 130.552 161.012C130.552 160.709 130.443 160.474 130.227 160.306C130.016 160.133 129.713 160.046 129.318 160.046H127.711V161.954H129.318ZM128.993 159.365C129.415 159.365 129.74 159.286 129.967 159.129C130.195 158.967 130.308 158.742 130.308 158.456C130.308 158.153 130.197 157.928 129.975 157.782C129.759 157.631 129.432 157.555 128.993 157.555H127.711V159.365H128.993ZM133.725 162.733C133.292 162.733 132.949 162.589 132.694 162.303C132.44 162.01 132.313 161.61 132.313 161.101V158.334H132.995V160.915C132.995 161.331 133.068 161.64 133.214 161.84C133.365 162.035 133.595 162.132 133.904 162.132C134.245 162.132 134.512 162.024 134.707 161.807C134.902 161.586 134.999 161.283 134.999 160.899V158.334H135.681V162.635H135.032V161.572L135.137 161.629C135.051 161.981 134.886 162.254 134.642 162.449C134.399 162.638 134.093 162.733 133.725 162.733ZM136.981 158.334H137.582L137.614 159.421L137.549 159.397C137.603 159.035 137.72 158.767 137.898 158.594C138.077 158.421 138.32 158.334 138.629 158.334H139.051V158.983H138.637C138.42 158.983 138.239 159.024 138.093 159.105C137.952 159.181 137.844 159.297 137.768 159.454C137.698 159.611 137.663 159.806 137.663 160.038V162.635H136.981V158.334ZM139.842 158.334H140.467L140.491 159.43L140.41 159.357C140.486 158.989 140.648 158.71 140.897 158.521C141.151 158.331 141.454 158.237 141.806 158.237C142.277 158.237 142.637 158.388 142.886 158.691C143.134 158.994 143.259 159.386 143.259 159.868V162.635H142.577V160.063C142.577 159.657 142.504 159.351 142.358 159.146C142.212 158.94 141.979 158.837 141.66 158.837C141.319 158.837 141.043 158.945 140.832 159.162C140.627 159.373 140.524 159.673 140.524 160.063V162.635H139.842V158.334ZM146.143 162.733C145.743 162.733 145.394 162.641 145.096 162.457C144.799 162.273 144.569 162.013 144.406 161.678C144.25 161.337 144.171 160.939 144.171 160.485C144.171 160.036 144.25 159.641 144.406 159.3C144.569 158.959 144.796 158.696 145.088 158.513C145.38 158.329 145.721 158.237 146.111 158.237C146.484 158.237 146.814 158.326 147.101 158.504C147.388 158.678 147.609 158.935 147.766 159.275C147.929 159.616 148.01 160.022 148.01 160.493V160.696H144.885C144.907 161.15 145.026 161.496 145.242 161.734C145.464 161.967 145.764 162.083 146.143 162.083C146.419 162.083 146.646 162.021 146.825 161.897C147.009 161.767 147.139 161.588 147.214 161.361L147.945 161.418C147.831 161.813 147.612 162.132 147.287 162.376C146.968 162.614 146.587 162.733 146.143 162.733ZM147.263 160.095C147.231 159.695 147.112 159.394 146.906 159.194C146.706 158.989 146.441 158.886 146.111 158.886C145.775 158.886 145.499 158.989 145.283 159.194C145.072 159.4 144.939 159.7 144.885 160.095H147.263ZM150.554 162.733C150.186 162.733 149.864 162.641 149.588 162.457C149.312 162.273 149.101 162.013 148.955 161.678C148.809 161.337 148.736 160.939 148.736 160.485C148.736 160.03 148.809 159.635 148.955 159.3C149.101 158.959 149.312 158.696 149.588 158.513C149.864 158.329 150.186 158.237 150.554 158.237C150.846 158.237 151.109 158.299 151.341 158.423C151.579 158.548 151.758 158.718 151.877 158.935V156.873H152.559V162.635H151.942L151.917 161.986C151.798 162.219 151.617 162.403 151.374 162.538C151.13 162.668 150.857 162.733 150.554 162.733ZM150.692 162.083C150.941 162.083 151.155 162.018 151.333 161.889C151.512 161.759 151.647 161.575 151.739 161.337C151.831 161.099 151.877 160.815 151.877 160.485C151.877 160.155 151.831 159.871 151.739 159.632C151.647 159.389 151.512 159.205 151.333 159.081C151.16 158.951 150.946 158.886 150.692 158.886C150.313 158.886 150.01 159.029 149.783 159.316C149.561 159.597 149.45 159.987 149.45 160.485C149.45 160.977 149.561 161.367 149.783 161.653C150.01 161.94 150.313 162.083 150.692 162.083Z" fill="black"/>
</g>
<defs>
<linearGradient id="paint0_linear_651_264" x1="132.128" y1="9.01733" x2="132.128" y2="20.7399" gradientUnits="userSpaceOnUse">
<stop stop-color="#E17739"/>
<stop offset="1" stop-color="#352521"/>
</linearGradient>
<clipPath id="clip0_651_264">
<path d="M0 11.7226C0 5.24837 5.24836 0 11.7225 0H220.071C226.545 0 231.793 5.24836 231.793 11.7225V33.0699H0V11.7226Z" fill="white"/>
</clipPath>
<clipPath id="clip1_651_264">
<rect width="231.793" height="33.0699" fill="white" transform="translate(0 35.7749)"/>
</clipPath>
<clipPath id="clip2_651_264">
<rect width="231.793" height="33.0699" fill="white" transform="translate(0 71.5503)"/>
</clipPath>
<clipPath id="clip3_651_264">
<rect width="231.793" height="33.0699" fill="white" transform="translate(0 107.325)"/>
</clipPath>
<clipPath id="clip4_651_264">
<path d="M0 143.1H231.793V164.448C231.793 170.922 226.545 176.17 220.071 176.17H11.7226C5.24837 176.17 0 170.922 0 164.448V143.1Z" fill="white"/>
</clipPath>
</defs>
</svg>
